<?xml version="1.0" ?><svg height="512" id="svg2" version="1.1" width="512" xmlns="http://www.w3.org/2000/svg" xmlns:cc="http://creativecommons.org/ns#" xmlns:dc="http://purl.org/dc/elements/1.1/" xmlns:inkscape="http://www.inkscape.org/namespaces/inkscape" xmlns:rdf="http://www.w3.org/1999/02/22-rdf-syntax-ns#" xmlns:sodipodi="http://sodipodi.sourceforge.net/DTD/sodipodi-0.dtd" xmlns:svg="http://www.w3.org/2000/svg"><defs id="defs4"/><g id="layer1" transform="translate(0,-540.3622)"><g id="layer1-5" transform="translate(-573.14286,170.28574)"/><path d="m 86,611.375 a 20.002,20.002 0 0 0 -17.15625,9.6875 l -30,50 A 20.002,20.002 0 0 0 36,681.375 l 0,280 a 20.002,20.002 0 0 0 20,20 l 400,0 a 20.002,20.002 0 0 0 20,-20 l 0,-280 a 20.002,20.002 0 0 0 -20,-20 l -188.65625,0 -24.1875,-40.3125 A 20.002,20.002 0 0 0 226,611.375 l -140,0 z m 11.3125,40 117.375,0 24.15625,40.28125 A 20.002,20.002 0 0 0 256,701.375 l 180,0 0,240 -360,0 0,-254.46875 21.3125,-35.53125 z" id="path2992" style="font-size:medium;font-style:normal;font-variant:normal;font-weight:normal;font-stretch:normal;text-indent:0;text-align:start;text-decoration:none;line-height:normal;letter-spacing:normal;word-spacing:normal;text-transform:none;direction:ltr;block-progression:tb;writing-mode:lr-tb;text-anchor:start;baseline-shift:baseline;color:#000000;fill:#222222;fill-opacity:1;stroke:none;stroke-width:40;marker:none;visibility:visible;display:inline;overflow:visible;enable-background:accumulate;font-family:Sans;-inkscape-font-specification:Sans"/></g></svg>